<?xml version="1.0" encoding="UTF-8"?>
<svg xmlns="http://www.w3.org/2000/svg"
    xmlns:latexdraw="http://latexdraw.sourceforge.net/namespaces/latexdraw"
    version="1.1" baseProfile="full">
    <defs/>
    <g>
        <g latexdraw:type="akinPoints" id="id10" latexdraw:pathType="1"
            latexdraw:interval="5" latexdraw:points="474.0 49.0 473.0 49.0 472.0 49.0 470.0 49.0 465.0 49.0 459.0 49.0 450.0 49.0 444.0 49.0 439.0 49.0 433.0 49.0 431.0 49.0 429.0 49.0 427.0 50.0 423.0 50.0 422.0 50.0 418.0 50.0 412.0 50.0 407.0 51.0 404.0 51.0 402.0 52.0 401.0 52.0 398.0 52.0 391.0 52.0 386.0 53.0 378.0 54.0 374.0 54.0 367.0 54.0 363.0 54.0 357.0 54.0 356.0 54.0 352.0 56.0 347.0 56.0 344.0 56.0 341.0 57.0 340.0 57.0 338.0 57.0 336.0 57.0 335.0 57.0 334.0 57.0 333.0 57.0 330.0 57.0 328.0 57.0 327.0 58.0 321.0 59.0 316.0 62.0 308.0 63.0 303.0 66.0 298.0 67.0 295.0 68.0 294.0 68.0 294.0 69.0 293.0 69.0 290.0 70.0 287.0 71.0 282.0 74.0 280.0 74.0 275.0 77.0 271.0 77.0 268.0 79.0 262.0 79.0 261.0 80.0 261.0 81.0 257.0 83.0 253.0 84.0 252.0 85.0 251.0 87.0 250.0 87.0 249.0 88.0 248.0 90.0 247.0 91.0 245.0 93.0 244.0 94.0 244.0 96.0 243.0 98.0 243.0 99.0 243.0 100.0 243.0 101.0 242.0 103.0 242.0 104.0 242.0 105.0 243.0 106.0 246.0 106.0 246.0 107.0 248.0 110.0 249.0 111.0 251.0 114.0 252.0 115.0 252.0 116.0 252.0 117.0 252.0 118.0 252.0 119.0 252.0 121.0 252.0 123.0 252.0 124.0 252.0 126.0 251.0 129.0 251.0 131.0 250.0 133.0 249.0 134.0 248.0 135.0 247.0 137.0 247.0 138.0 247.0 139.0 247.0 140.0 247.0 141.0 247.0 142.0 245.0 143.0 245.0 144.0 244.0 146.0 244.0 148.0 243.0 148.0 242.0 148.0 242.0 150.0 242.0 151.0 242.0 152.0 242.0 155.0 241.0 157.0 240.0 157.0 240.0 159.0 240.0 160.0 236.0 162.0 236.0 164.0 236.0 167.0 235.0 171.0 234.0 172.0 233.0 173.0 232.0 177.0 231.0 180.0 230.0 184.0 229.0 191.0 225.0 193.0 221.0 193.0 221.0 198.0 219.0 201.0 215.0 207.0 215.0 209.0 215.0 210.0 215.0 211.0 215.0 212.0 215.0 213.0 215.0 214.0 215.0 215.0 215.0 217.0 215.0 220.0 215.0 223.0 215.0 224.0 215.0 226.0 215.0 227.0 215.0 228.0 215.0 229.0 215.0 231.0 215.0 232.0 215.0 233.0 215.0 234.0 215.0 235.0 215.0 237.0 215.0 238.0 215.0 239.0 213.0 241.0 213.0 242.0 213.0 244.0 213.0 245.0 213.0 246.0 212.0 249.0 211.0 253.0 211.0 257.0 209.0 259.0 209.0 262.0 207.0 263.0 207.0 267.0 207.0 269.0 203.0 274.0 203.0 275.0 203.0 276.0 203.0 277.0 203.0 278.0 203.0 279.0 203.0 281.0 204.0 282.0 205.0 284.0 206.0 288.0 207.0 290.0 208.0 292.0 208.0 293.0 212.0 295.0 212.0 297.0 212.0 298.0 214.0 301.0 216.0 303.0 218.0 305.0 222.0 311.0 226.0 312.0 227.0 313.0 228.0 313.0 229.0 314.0 231.0 319.0 232.0 322.0 233.0 323.0 234.0 327.0 236.0 330.0 237.0 331.0 238.0 332.0 238.0 334.0 238.0 336.0 241.0 340.0 241.0 341.0 242.0 341.0 242.0 342.0 243.0 342.0 244.0 342.0 245.0 342.0 247.0 342.0 248.0 342.0 250.0 344.0 260.0 345.0 264.0 346.0 272.0 348.0 280.0 348.0 286.0 348.0 292.0 348.0 296.0 346.0 305.0 345.0 312.0 344.0 316.0 344.0 318.0 343.0 322.0 343.0 324.0 343.0 326.0 343.0 329.0 341.0 335.0 339.0 344.0 335.0 347.0 336.0 353.0 336.0 361.0 331.0 366.0 330.0 372.0 329.0 375.0 326.0 379.0 326.0 382.0 323.0 384.0 322.0 386.0 322.0 387.0 322.0 388.0 322.0 389.0 321.0 390.0 320.0 392.0 320.0 394.0 320.0 401.0 320.0 407.0 320.0 416.0 319.0 425.0 317.0 436.0 316.0 446.0 315.0 451.0 315.0 454.0 315.0 455.0 315.0 457.0 315.0 458.0 315.0 460.0 315.0 461.0 314.0 464.0 311.0 466.0 309.0 467.0 309.0 470.0 305.0 474.0 302.0 477.0 298.0 478.0 295.0 480.0 293.0 481.0 291.0 482.0 288.0 486.0 285.0 491.0 280.0 494.0 277.0 498.0 276.0 503.0 270.0 507.0 267.0 510.0 266.0 512.0 266.0 513.0 263.0 515.0 263.0 518.0 260.0 520.0 258.0 521.0 257.0 525.0 253.0 529.0 248.0 532.0 244.0 533.0 242.0 533.0 240.0 533.0 237.0 533.0 235.0 533.0 231.0 533.0 225.0 533.0 219.0 533.0 214.0 537.0 208.0 540.0 200.0 544.0 192.0 545.0 187.0 546.0 185.0 547.0 184.0 548.0 183.0 550.0 181.0 551.0 178.0 554.0 174.0 555.0 171.0 556.0 169.0 558.0 163.0 561.0 160.0 564.0 155.0 566.0 150.0 566.0 147.0 567.0 143.0 567.0 141.0 568.0 138.0 568.0 136.0 569.0 127.0 569.0 122.0 569.0 116.0 569.0 111.0 569.0 107.0 569.0 106.0 568.0 102.0 567.0 102.0 567.0 101.0 566.0 99.0 565.0 98.0 564.0 98.0 562.0 96.0 558.0 94.0 557.0 90.0 555.0 88.0 551.0 85.0 549.0 81.0 547.0 81.0 547.0 80.0 545.0 79.0 543.0 78.0 542.0 77.0 539.0 75.0 537.0 75.0 535.0 75.0 535.0 73.0 533.0 73.0 531.0 73.0 528.0 72.0 523.0 71.0 519.0 69.0 517.0 68.0 515.0 67.0 513.0 67.0 512.0 67.0 513.0 65.0 513.0 64.0 510.0 61.0 509.0 61.0 508.0 60.0 505.0 59.0 504.0 59.0 504.0 58.0 502.0 58.0 495.0 55.0 488.0 54.0 485.0 53.0 483.0 53.0 483.0 52.0 482.0 52.0 475.0 49.0 471.0 49.0 470.0 49.0 ">
            <path
                d="M 474.0 49.0 L 466.5 49.0 C 462.75 49.0 452.0 49.0 445.0 49.0 C 438.0 49.0 427.75 49.25 424.5 49.5 C 421.25 49.75 413.75 50.5 409.5 51.0 C 405.25 51.5 394.25 52.5 387.5 53.0 C 380.75 53.5 368.5 54.5 363.0 55.0 C 357.5 55.5 348.5 56.25 345.0 56.5 C 341.5 56.75 336.0 57.0 334.0 57.0 C 332.0 57.0 324.5 58.5 319.0 60.0 C 313.5 61.5 304.5 64.5 301.0 66.0 C 297.5 67.5 290.5 70.25 287.0 71.5 C 283.5 72.75 275.25 75.5 270.5 77.0 C 265.75 78.5 258.5 81.75 256.0 83.5 C 253.5 85.25 249.5 88.5 248.0 90.0 C 246.5 91.5 244.5 94.75 244.0 96.5 C 243.5 98.25 243.0 101.5 243.0 103.0 C 243.0 104.5 245.0 108.0 247.0 110.0 C 249.0 112.0 251.25 115.25 251.5 116.5 C 251.75 117.75 251.75 121.5 251.5 124.0 C 251.25 126.5 250.0 131.0 249.0 133.0 C 248.0 135.0 247.0 138.25 247.0 139.5 C 247.0 140.75 246.0 143.5 245.0 145.0 C 244.0 146.5 242.75 149.75 242.5 151.5 C 242.25 153.25 240.5 156.75 239.0 158.5 C 237.5 160.25 235.25 164.75 234.5 167.5 C 233.75 170.25 231.0 178.0 229.0 183.0 C 227.0 188.0 222.5 197.0 220.0 201.0 C 217.5 205.0 215.0 210.25 215.0 211.5 C 215.0 212.75 215.0 216.5 215.0 219.0 C 215.0 221.5 215.0 225.75 215.0 227.5 C 215.0 229.25 215.0 232.5 215.0 234.0 C 215.0 235.5 214.5 238.75 214.0 240.5 C 213.5 242.25 212.5 247.25 212.0 250.5 C 211.5 253.75 210.0 260.0 209.0 263.0 C 208.0 266.0 206.0 271.25 205.0 273.5 C 204.0 275.75 203.75 280.5 204.5 283.0 C 205.25 285.5 207.5 290.25 209.0 292.5 C 210.5 294.75 214.5 300.5 217.0 304.0 C 219.5 307.5 224.25 313.0 226.5 315.0 C 228.75 317.0 232.5 322.0 234.0 325.0 C 235.5 328.0 238.0 333.5 239.0 336.0 C 240.0 338.5 242.0 341.25 243.0 341.5 C 244.0 341.75 249.75 343.0 254.5 344.0 C 259.25 345.0 272.0 346.0 280.0 346.0 C 288.0 346.0 302.5 345.25 309.0 344.5 C 315.5 343.75 327.5 341.0 333.0 339.0 C 338.5 337.0 351.0 333.5 358.0 332.0 C 365.0 330.5 375.5 327.25 379.0 325.5 C 382.5 323.75 387.5 321.5 389.0 321.0 C 390.5 320.5 400.25 319.25 408.5 318.5 C 416.75 317.75 432.5 316.5 440.0 316.0 C 447.5 315.5 457.25 314.0 459.5 313.0 C 461.75 312.0 467.25 307.75 470.5 304.5 C 473.75 301.25 479.25 294.75 481.5 291.5 C 483.75 288.25 491.25 280.5 496.5 276.0 C 501.75 271.5 509.75 265.25 512.5 263.5 C 515.25 261.75 521.5 256.0 525.0 252.0 C 528.5 248.0 532.25 240.75 532.5 237.5 C 532.75 234.25 534.75 223.25 536.5 215.5 C 538.25 207.75 542.0 195.75 544.0 191.5 C 546.0 187.25 550.0 179.5 552.0 176.0 C 554.0 172.5 558.5 163.5 561.0 158.0 C 563.5 152.5 566.75 142.0 567.5 137.0 C 568.25 132.0 569.0 121.75 569.0 116.5 C 569.0 111.25 568.0 104.0 567.0 102.0 C 566.0 100.0 562.5 95.5 560.0 93.0 C 557.5 90.5 552.5 85.75 550.0 83.5 C 547.5 81.25 542.5 78.0 540.0 77.0 C 537.5 76.0 532.0 74.0 529.0 73.0 C 526.0 72.0 520.25 70.0 517.5 69.0 C 514.75 68.0 511.0 65.25 510.0 63.5 C 509.0 61.75 504.75 58.75 501.5 57.5 C 498.25 56.25 491.75 54.25 488.5 53.5 C 485.25 52.75 479.0 51.25 470.0 49.0 "
                stroke-width="2.0" stroke="black" fill="none" latexdraw:rotationAngle="0.0"/>
        </g>
        <g latexdraw:type="line" id="id11">
            <line x1="459.0" x2="285.0" y1="109.0" y2="264.0"
                stroke-width="2.0" stroke="black" latexdraw:rotationAngle="0.0"/>
        </g>
        <g latexdraw:type="dot" id="id12" latexdraw:size="6.0"
            latexdraw:dotShape="dot" latexdraw:position="285.0 264.0">
            <circle r="3.0" fill="black" cx="285.0" cy="264.0"/>
        </g>
        <g latexdraw:type="dot" id="id13" latexdraw:size="6.0"
            latexdraw:dotShape="dot" latexdraw:position="459.0 109.0">
            <circle r="3.0" fill="black" cx="459.0" cy="109.0"/>
        </g>
        <g latexdraw:type="text" id="id14" font-family="Times New Roman"
            fill="black" font-size="18" latexdraw:x="457.0">
            <text x="457.0" y="92.0"><![CDATA[O]]></text>
        </g>
        <g latexdraw:type="text" id="id16" font-family="Times New Roman"
            fill="black" font-size="18" latexdraw:x="254.0">
            <text x="254.0" y="248.0"><![CDATA[A]]></text>
        </g>
        <g latexdraw:type="text" id="id18" font-family="Times New Roman"
            fill="black" font-size="18" latexdraw:x="244.0">
            <text x="244.0" y="294.0"><![CDATA[Active well]]></text>
        </g>
        <g latexdraw:type="text" id="id20" font-family="Times New Roman"
            fill="black" font-size="18" latexdraw:x="454.0">
            <text x="454.0" y="134.0"><![CDATA[Observation well]]></text>
        </g>
        <g latexdraw:type="text" id="id22" font-family="Times New Roman"
            fill="black" font-size="18" latexdraw:x="356.0">
            <text x="356.0" y="165.0"><![CDATA[r]]></text>
        </g>
    </g>
    <metadata>
        <latexdraw:metadata>
            <latexdraw:displayBorders>false</latexdraw:displayBorders>
            <latexdraw:autoAdjust>true</latexdraw:autoAdjust>
            <latexdraw:ppc>50</latexdraw:ppc>
            <latexdraw:zoom>1.75</latexdraw:zoom>
            <latexdraw:unit>cm</latexdraw:unit>
            <latexdraw:classicGrid>false</latexdraw:classicGrid>
            <latexdraw:gridGap>10</latexdraw:gridGap>
            <latexdraw:code>0</latexdraw:code>
            <latexdraw:displayGrid>true</latexdraw:displayGrid>
            <latexdraw:magneticGrid>false</latexdraw:magneticGrid>
            <latexdraw:autoUpdate>true</latexdraw:autoUpdate>
            <latexdraw:version>2.0.8</latexdraw:version>
            <latexdraw:size>
                <latexdraw:width>1938</latexdraw:width>
                <latexdraw:height>1050</latexdraw:height>
            </latexdraw:size>
            <latexdraw:position>
                <latexdraw:x>0</latexdraw:x>
                <latexdraw:y>0</latexdraw:y>
            </latexdraw:position>
            <latexdraw:dividerPosition>0.6651186790505675</latexdraw:dividerPosition>
            <latexdraw:displayCodePanel>true</latexdraw:displayCodePanel>
            <latexdraw:displayXScale>true</latexdraw:displayXScale>
            <latexdraw:displayYScale>true</latexdraw:displayYScale>
            <latexdraw:delimitorOpacity>130</latexdraw:delimitorOpacity>
        </latexdraw:metadata>
    </metadata>
</svg>
